<svg xmlns="http://www.w3.org/2000/svg" xmlns:xlink="http://www.w3.org/1999/xlink" width="1745" height="3340" viewBox="0 0 1745 3340">
<path fill-rule="nonzero" fill="currentColor" fill-opacity="1" d="M 550.046875 344.96875 C 550.046875 535.488281 704.496094 689.941406 895.015625 689.941406 C 1085.539062 689.941406 1239.980469 535.488281 1239.980469 344.96875 C 1239.980469 253.480469 1203.640625 165.730469 1138.941406 101.039062 C 1074.25 36.339844 986.507812 0 895.015625 0 C 803.523438 0 715.78125 36.339844 651.085938 101.039062 C 586.390625 165.730469 550.046875 253.480469 550.046875 344.96875 Z M 550.046875 344.96875 "/>
<path fill-rule="nonzero" fill="currentColor" fill-opacity="1" d="M 1074.191406 761.980469 L 670.921875 761.980469 C 557.871094 761.980469 466.859375 852.988281 466.859375 966.039062 L 466.859375 1871 C 466.859375 1984.050781 557.871094 2075.058594 670.921875 2075.058594 L 1074.191406 2075.058594 C 1187.238281 2075.058594 1278.261719 1984.050781 1278.261719 1871 L 1278.261719 966.039062 C 1278.261719 852.988281 1187.238281 761.980469 1074.191406 761.980469 Z M 1074.191406 761.980469 "/>
<path fill="none" stroke-width="3749.82" stroke-linecap="round" stroke-linejoin="round" stroke="currentColor" stroke-opacity="1" stroke-miterlimit="4" d="M 10858.007812 14440.195312 L 10858.007812 1874.648438 " transform="matrix(0.1, 0, 0, -0.1, 0, 3340)"/>
<path fill="none" stroke-width="3749.82" stroke-linecap="round" stroke-linejoin="round" stroke="currentColor" stroke-opacity="1" stroke-miterlimit="4" d="M 6513.789062 14440.195312 L 6513.789062 1874.648438 " transform="matrix(0.1, 0, 0, -0.1, 0, 3340)"/>
<path fill="none" stroke-width="2999.86" stroke-linecap="round" stroke-linejoin="round" stroke="currentColor" stroke-opacity="1" stroke-miterlimit="4" d="M 11375 24159.101562 L 15948.085938 15496.914062 " transform="matrix(0.1, 0, 0, -0.1, 0, 3340)"/>
<path fill="none" stroke-width="2999.86" stroke-linecap="round" stroke-linejoin="round" stroke="currentColor" stroke-opacity="1" stroke-miterlimit="4" d="M 6073.085938 24159.101562 L 1499.921875 15496.914062 " transform="matrix(0.1, 0, 0, -0.1, 0, 3340)"/>
</svg>
