<?xml version="1.0" encoding="UTF-8"?> <svg xmlns="http://www.w3.org/2000/svg" width="141" height="64" viewBox="0 0 141 64" fill="none"><path d="M3.79638 24.1069V39.4201H0V20.275H9.48368V24.1069H3.79638ZM19.5449 28.9442C18.6932 29.9058 17.5961 30.3867 16.2537 30.4012H15.9939V39.4201H12.1975V20.275H16.2682C17.6105 20.2895 18.7077 20.7849 19.5593 21.732C20.4109 22.6936 20.844 23.8884 20.844 25.3308C20.844 26.7879 20.4109 27.9826 19.5449 28.9442ZM17.2064 24.0778C16.9466 23.7281 16.6289 23.5532 16.2248 23.5532H15.9939V27.1084H16.2393C16.6434 27.1084 16.961 26.9335 17.2209 26.5838C17.4807 26.2341 17.5961 25.8116 17.5961 25.3308C17.5817 24.85 17.4662 24.4275 17.2064 24.0778ZM38.9742 36.7976C37.242 38.5459 34.9468 39.4201 32.0887 39.4201C29.2306 39.4201 26.9355 38.5459 25.2033 36.7976C23.4712 35.0491 22.6051 32.7325 22.6051 29.8476C22.6051 26.9627 23.4712 24.646 25.2033 22.8976C26.9355 21.1492 29.2306 20.275 32.0887 20.275C34.9468 20.275 37.242 21.1492 38.9742 22.8976C40.7064 24.646 41.5725 26.9627 41.5725 29.8476C41.5725 32.7325 40.7064 35.0491 38.9742 36.7976ZM36.3327 25.6222C35.3655 24.6169 33.9509 24.1069 32.0887 24.1069C30.2267 24.1069 28.812 24.6169 27.8449 25.6222C26.8777 26.6275 26.4014 28.0409 26.4014 29.8476C26.4014 31.6543 26.8777 33.0676 27.8449 34.0729C28.812 35.0783 30.2267 35.5882 32.0887 35.5882C33.9509 35.5882 35.3655 35.0783 36.3327 34.0729C37.2997 33.0676 37.7761 31.6543 37.7761 29.8476C37.7761 28.0409 37.2997 26.6421 36.3327 25.6222ZM65.8231 39.4784V21.5717L58.086 31.9602H54.7082V21.5717L48.559 29.9204H51.9512L44.9647 39.493H40.3599L47.3465 29.9204H43.9543L50.9985 20.3332H58.5046V25.2288L62.1134 20.3332H69.6195V39.4784H65.8231ZM84.0688 34.102C85.0503 35.0928 86.4505 35.5882 88.2838 35.5882V39.4201C85.4257 39.4201 83.1306 38.5459 81.3983 36.7976C79.6661 35.0491 78.8 32.7325 78.8 29.8476H76.3605V39.4201H72.5786V20.275H76.375V28.8859L82.6542 20.275H87.2589L80.2724 29.8476H82.5965C82.5965 31.6979 83.0872 33.1113 84.0688 34.102ZM110.947 39.4201V22.3002L98.4752 39.4201H91.4306V20.275H95.2274V37.5551L107.8 20.275H114.728V39.4201H110.947ZM137.203 39.4201V22.3002L124.746 39.4201H117.702V20.275H121.498V37.5551L134.071 20.275H141V39.4201H137.203ZM132.585 18.9636C131.545 19.8379 130.304 20.275 128.861 20.275C127.416 20.275 126.175 19.8379 125.136 18.9636C124.097 18.0894 123.577 16.9821 123.577 15.6271H126.608C126.608 16.1807 126.825 16.6324 127.258 16.9967C127.691 17.3609 128.225 17.5503 128.861 17.5503C129.495 17.5503 130.03 17.3609 130.462 16.9967C130.896 16.6324 131.112 16.1807 131.112 15.6271H134.143C134.143 16.9821 133.624 18.0894 132.585 18.9636ZM25.0734 54.4274H26.8922L33.8787 64H18.8375V44.8548H22.9082C24.2506 44.8694 25.3477 45.3647 26.1993 46.3119C27.0509 47.2735 27.484 48.4682 27.484 49.9107C27.484 50.916 27.2675 51.8048 26.8489 52.6061C26.4303 53.3929 25.8384 54.0049 25.0734 54.4274ZM22.6339 60.7072H26.8922L22.6917 54.9665H22.6339V60.7072ZM23.8609 48.6577C23.601 48.3079 23.2835 48.1331 22.8793 48.1331H22.6339V51.6882H22.8793C23.2835 51.6882 23.601 51.5134 23.8609 51.1637C24.1207 50.814 24.2362 50.3915 24.2362 49.9107C24.2362 49.4153 24.1062 48.9928 23.8609 48.6577ZM48.6167 61.3628C46.8845 63.1113 44.5893 63.9855 41.7312 63.9855C38.8731 63.9855 36.578 63.1113 34.8459 61.3628C33.1137 59.6144 32.2476 57.2977 32.2476 54.4128C32.2476 51.5279 33.1137 49.2113 34.8459 47.4629C36.578 45.7145 38.8731 44.8403 41.7312 44.8403C44.5893 44.8403 46.8845 45.7145 48.6167 47.4629C50.3489 49.2113 51.215 51.5279 51.215 54.4128C51.215 57.2977 50.3489 59.6144 48.6167 61.3628ZM45.9751 50.202C45.008 49.1967 43.5934 48.6868 41.7312 48.6868C39.8692 48.6868 38.4545 49.1967 37.4874 50.202C36.5202 51.2074 36.0439 52.6207 36.0439 54.4274C36.0439 56.2341 36.5202 57.6475 37.4874 58.6528C38.4545 59.6581 39.8692 60.1681 41.7312 60.1681C43.5934 60.1681 45.008 59.6581 45.9751 58.6528C46.9422 57.6475 47.4186 56.2341 47.4186 54.4274C47.4331 52.6207 46.9422 51.2074 45.9751 50.202ZM66.0685 64H61.4638L72.622 48.5994H65.3612L54.203 64H49.5983L63.4702 44.8548H79.9404L66.0685 64ZM88.7745 53.5095C87.9229 54.4711 86.8259 54.9519 85.4834 54.9665H85.2092V63.9855H81.4127V44.8548H85.4834C86.8259 44.8694 87.9229 45.3647 88.7745 46.3119C89.6263 47.2735 90.0593 48.4682 90.0593 49.9107C90.0737 51.3531 89.6407 52.5478 88.7745 53.5095ZM86.4361 48.6577C86.1762 48.3079 85.8587 48.1331 85.4546 48.1331H85.2092V51.6882H85.4546C85.8587 51.6882 86.1762 51.5134 86.4361 51.1637C86.6959 50.814 86.8114 50.3915 86.8114 49.9107C86.8114 49.4153 86.6959 48.9928 86.4361 48.6577ZM108.348 61.3628C106.616 63.1113 104.321 63.9855 101.463 63.9855C98.6047 63.9855 96.3097 63.1113 94.5774 61.3628C92.8453 59.6144 91.9792 57.2977 91.9792 54.4128C91.9792 51.5279 92.8453 49.2113 94.5774 47.4629C96.3097 45.7145 98.6047 44.8403 101.463 44.8403C104.321 44.8403 106.616 45.7145 108.348 47.4629C110.08 49.2113 110.947 51.5279 110.947 54.4128C110.947 57.2977 110.08 59.6144 108.348 61.3628ZM105.707 50.202C104.739 49.1967 103.325 48.6868 101.463 48.6868C99.6003 48.6868 98.1865 49.1967 97.2185 50.202C96.2515 51.2074 95.7752 52.6207 95.7752 54.4274C95.7752 56.2341 96.2515 57.6475 97.2185 58.6528C98.1865 59.6581 99.6003 60.1681 101.463 60.1681C103.325 60.1681 104.739 59.6581 105.707 58.6528C106.674 57.6475 107.15 56.2341 107.15 54.4274C107.15 52.6207 106.674 51.2074 105.707 50.202ZM122.307 60.1681V64C119.449 64 117.154 63.1258 115.422 61.3774C113.689 59.629 112.823 57.3123 112.823 54.4274C112.823 51.5425 113.689 49.2259 115.422 47.4774C117.154 45.729 119.449 44.8548 122.307 44.8548V48.6868C120.444 48.6868 119.03 49.1967 118.063 50.202C117.096 51.2074 116.619 52.6207 116.619 54.4274C116.619 56.2341 117.096 57.6475 118.063 58.6528C119.045 59.6581 120.459 60.1681 122.307 60.1681Z" fill="#D0FF00"></path><path d="M28.6386 2.25497H31.9996V11.5401H30.1615V3.23654L24.1222 11.5401H20.7087V2.25497H22.5468V10.6381L28.6386 2.25497Z" fill="#D0FF00"></path><path d="M34.8936 11.5401H33.0555V2.25497H37.6507V4.112H34.8936V11.5401Z" fill="#D0FF00"></path><path d="M41.9984 2.97125C42.4185 3.43109 42.6286 4.01031 42.6286 4.7089C42.6286 5.4075 42.4185 5.99114 41.9984 6.45982C41.587 6.91966 41.0575 7.154 40.4098 7.16284H40.2785V11.5401H38.4404V2.25497H40.4098C41.0575 2.26381 41.587 2.50257 41.9984 2.97125ZM40.3967 5.5711C40.5892 5.5711 40.7468 5.48709 40.8693 5.31907C40.9918 5.15105 41.0531 4.94766 41.0531 4.7089C41.0531 4.47014 40.9918 4.26675 40.8693 4.09874C40.7468 3.93072 40.5892 3.84671 40.3967 3.84671H40.2785V5.5711H40.3967Z" fill="#D0FF00"></path><path d="M44.4129 3.52836C45.2531 2.67943 46.3647 2.25497 47.7476 2.25497C49.1305 2.25497 50.2421 2.67943 51.0824 3.52836C51.9226 4.37729 52.3427 5.50035 52.3427 6.89755C52.3427 8.29474 51.9226 9.41781 51.0824 10.2667C50.2421 11.1157 49.1305 11.5401 47.7476 11.5401C46.3647 11.5401 45.2531 11.1157 44.4129 10.2667C43.5726 9.41781 43.1525 8.29474 43.1525 6.89755C43.1525 5.50035 43.5726 4.37729 44.4129 3.52836ZM45.6864 8.95355C46.159 9.43991 46.8461 9.6831 47.7476 9.6831C48.6491 9.6831 49.3318 9.43991 49.7957 8.95355C50.2684 8.45834 50.5047 7.77301 50.5047 6.89755C50.5047 6.02209 50.2684 5.34118 49.7957 4.85481C49.3318 4.35961 48.6491 4.112 47.7476 4.112C46.8461 4.112 46.159 4.35961 45.6864 4.85481C45.2225 5.34118 44.9905 6.02209 44.9905 6.89755C44.9905 7.77301 45.2225 8.45834 45.6864 8.95355Z" fill="#D0FF00"></path><path d="M57.0328 6.89755L60.4201 11.5401H53.1335V2.25497H55.1029C55.7506 2.26381 56.2801 2.50257 56.6915 2.97125C57.1116 3.43109 57.3217 4.01031 57.3217 4.7089C57.3217 5.19527 57.2166 5.633 57.0066 6.02209C56.8053 6.40234 56.5208 6.69416 56.1532 6.89755H57.0328ZM55.0898 3.84671H54.9716V5.5711H55.0898C55.2823 5.5711 55.4399 5.48709 55.5624 5.31907C55.6849 5.15105 55.7462 4.94766 55.7462 4.7089C55.7462 4.47014 55.6849 4.26675 55.5624 4.09874C55.4399 3.93072 55.2823 3.84671 55.0898 3.84671ZM54.9716 9.94839H57.0328L54.9979 7.16284H54.9716V9.94839Z" fill="#D0FF00"></path><path d="M60.4907 3.52836C61.3309 2.67943 62.4425 2.25497 63.8254 2.25497C65.2083 2.25497 66.3199 2.67943 67.1602 3.52836C68.0004 4.37729 68.4205 5.50035 68.4205 6.89755C68.4205 8.29474 68.0004 9.41781 67.1602 10.2667C66.3199 11.1157 65.2083 11.5401 63.8254 11.5401C62.4425 11.5401 61.3309 11.1157 60.4907 10.2667C59.6504 9.41781 59.2303 8.29474 59.2303 6.89755C59.2303 5.50035 59.6504 4.37729 60.4907 3.52836ZM61.7642 8.95355C62.2368 9.43991 62.9239 9.6831 63.8254 9.6831C64.7269 9.6831 65.4096 9.43991 65.8735 8.95355C66.3462 8.45834 66.5825 7.77301 66.5825 6.89755C66.5825 6.02209 66.3462 5.34118 65.8735 4.85481C65.4096 4.35961 64.7269 4.112 63.8254 4.112C62.9239 4.112 62.2368 4.35961 61.7642 4.85481C61.3003 5.34118 61.0683 6.02209 61.0683 6.89755C61.0683 7.77301 61.3003 8.45834 61.7642 8.95355Z" fill="#D0FF00"></path><path d="M76.4191 1.61827C75.9202 2.04274 75.3207 2.25497 74.6204 2.25497C73.9202 2.25497 73.3163 2.04274 72.8087 1.61827C72.3098 1.19381 72.0603 0.654383 72.0603 0H73.5307C73.5307 0.265291 73.6358 0.486366 73.8458 0.663226C74.0559 0.840086 74.3141 0.928517 74.6204 0.928517C74.9268 0.928517 75.185 0.840086 75.3951 0.663226C75.6051 0.486366 75.7102 0.265291 75.7102 0H77.1806C77.1806 0.654383 76.9268 1.19381 76.4191 1.61827ZM77.1412 2.25497H80.5022V11.5401H78.6642V3.23654L72.6249 11.5401H69.2113V2.25497H71.0494V10.6381L77.1412 2.25497Z" fill="#D0FF00"></path><path d="M89.6981 6.89755C89.6981 7.79069 89.9344 8.48045 90.407 8.96681C90.8884 9.44434 91.5711 9.6831 92.4552 9.6831V11.5401C91.0722 11.5401 89.9607 11.1157 89.1204 10.2667C88.2802 9.41781 87.86 8.29474 87.86 6.89755H86.6784V11.5401H84.8404V2.25497H86.6784V6.43329L89.7243 2.25497H91.9563L88.569 6.89755H89.6981Z" fill="#D0FF00"></path><path d="M98.0764 2.25497H101.713V11.5401H99.875V2.85187L96.8948 6.89755H98.6016L95.2143 11.5401H92.9824L96.3696 6.89755H94.6629L98.0764 2.25497Z" fill="#D0FF00"></path><path d="M110.123 2.25497H112.355L105.633 11.5401H103.401L106.762 6.89755H105.37L101.983 2.25497H104.215L107.182 6.31391L110.123 2.25497Z" fill="#D0FF00"></path><path d="M116.589 6.89755L119.976 11.5401H112.624V2.25497H117.219V4.112H114.462V6.89755H116.589ZM114.462 9.94839H116.589L114.462 7.04346V9.94839Z" fill="#D0FF00"></path></svg> 